<?xml version="1.0" encoding="utf-8"?>
<!-- Generator: Adobe Illustrator 25.0.0, SVG Export Plug-In . SVG Version: 6.00 Build 0)  -->
<svg version="1.1" id="Layer_1" xmlns="http://www.w3.org/2000/svg" xmlns:xlink="http://www.w3.org/1999/xlink" x="0px" y="0px"
	 viewBox="0 0 534.1 197.8" style="enable-background:new 0 0 534.1 197.8;" xml:space="preserve">
<style type="text/css">
	.st0{fill:#00173C;}
	.st1{fill:#BB0B24;}
	.st2{fill:#E3462E;}
	.st3{fill:#651080;}
	.st4{fill:#434041;}
</style>
<g>
	<g>
		<path class="st0" d="M60.6,36.6c16.9,0,30.5,4.8,40.8,14.3c10.3,9.5,15.5,22,15.5,37.4s-5.2,27.9-15.5,37.4
			c-10.3,9.5-24,14.3-40.8,14.3H16.9V36.6H60.6z M58.4,115c8.5,0,15.4-2.5,20.7-7.4c5.3-4.9,7.9-11.4,7.9-19.3
			c0-7.9-2.6-14.4-7.9-19.3c-5.2-4.9-12.1-7.4-20.7-7.4H46.5V115H58.4z"/>
		<path class="st0" d="M146.3,28.2c3.1,3.1,4.6,6.8,4.6,11c0,4.5-1.5,8.3-4.6,11.3c-3,3-6.9,4.5-11.7,4.5c-4.7,0-8.6-1.5-11.7-4.5
			c-3-3-4.6-6.7-4.6-11.3c0-4.3,1.5-8,4.6-11.1c3.1-3.1,6.9-4.6,11.6-4.6C139.3,23.4,143.2,25,146.3,28.2z M120.3,140V62h28.9v78
			H120.3z"/>
		<path class="st0" d="M178.5,114.4c1.3,5,5.2,7.6,11.6,7.6c2.6,0,4.6-0.4,6-1.3c1.4-0.9,2.2-2,2.2-3.3c0-2.4-2.4-3.9-7.1-4.6
			l-15.6-2.6c-15.4-2.8-23.2-10.5-23.2-23.2c0-8.3,3.3-15,9.9-19.8c6.6-4.9,14.9-7.3,25-7.3c10.2,0,18.5,1.9,24.9,5.7
			c6.4,3.8,10.5,9.2,12.4,16.1l-25.9,5.1c-0.3-2-1.5-3.7-3.5-5.3c-2-1.6-4.6-2.4-7.6-2.4c-4.8,0-7.3,1.5-7.3,4.6
			c0,2.1,1.7,3.4,5.1,4.2l17.8,3.6c7.7,1.4,13.5,4.3,17.3,8.6c3.8,4.3,5.7,9.6,5.7,16.1c0,8.3-3.4,14.8-10.3,19.5
			c-6.8,4.6-15.6,6.9-26.3,6.9c-10.3,0-18.9-1.9-25.8-5.6c-6.9-3.8-11.2-9.4-12.8-16.9L178.5,114.4z"/>
		<path class="st0" d="M288.5,136.6c-7.1,3.8-14.5,5.7-22.2,5.7c-10.1,0-17.9-2.7-23.3-8.2s-8.2-13.1-8.2-23V84.6h-11.9V62h11.9
			V39.7h28.9V62h20.7v22.5h-20.7v23.3c0,6.3,3.1,9.4,9.3,9.4c3.5,0,6.8-0.8,9.9-2.5L288.5,136.6z"/>
		<path class="st0" d="M366.7,108.1h-54.8c0.9,3.8,2.6,6.8,5.1,8.9c2.5,2.1,5.5,3.2,9.1,3.2c6.6,0,11.2-2.5,13.7-7.6l25.8,5.1
			c-3.2,8.1-8.2,14.3-15.1,18.4c-6.9,4.2-15,6.3-24.4,6.3c-11.9,0-22-3.9-30.2-11.6c-8.2-7.7-12.3-17.6-12.3-29.6
			c0-12.1,4.1-22.1,12.3-29.8c8.2-7.7,18.2-11.6,30.2-11.6c11.9,0,21.7,3.8,29.2,11.4c7.5,7.6,11.3,18.1,11.4,31.5V108.1z
			 M317.5,84.9c-2.5,1.8-4.2,4.2-5.2,7.3h26.6c-2-6.6-6.2-9.9-12.7-9.9C322.8,82.3,320,83.1,317.5,84.9z"/>
		<path class="st0" d="M424.8,140l-20.8-25.9h-4.8V140h-28.9V28.9h28.9v59h3.4L423.7,62h34.1L427,99.1l33.8,40.9H424.8z"/>
	</g>
	<g>
		<polygon class="st1" points="481,80.1 451,80.1 451,118.5 489.5,118.5 489.5,88.6 481,88.6 		"/>
		<polygon class="st2" points="500.2,60.8 481,60.8 481,80.1 489.5,80.1 489.5,88.6 508.7,88.6 508.7,69.3 500.2,69.3 		"/>
		<polygon class="st3" points="517.2,52.3 500.2,52.3 500.2,60.8 508.7,60.8 508.7,69.3 517.2,69.3 		"/>
	</g>
	<g>
		<path class="st4" d="M22.6,157.1c2.9,0,5.2,0.8,6.8,2.4c1.7,1.6,2.5,3.6,2.5,6.1c0,2.5-0.8,4.5-2.5,6.1c-1.7,1.6-4,2.4-6.8,2.4H17
			v-16.9H22.6z M22.6,172.2c2.3,0,4.1-0.6,5.4-1.9c1.3-1.2,2-2.8,2-4.8c0-2-0.7-3.5-2-4.8c-1.3-1.2-3.1-1.9-5.4-1.9H19v13.3H22.6z"
			/>
		<path class="st4" d="M36.9,174v-16.9h2V174H36.9z"/>
		<path class="st4" d="M54.5,158.1c1.1,0.8,1.8,2,2.1,3.4l-2,0.5c-0.2-1-0.7-1.8-1.5-2.4c-0.8-0.6-1.8-0.9-2.9-0.9
			c-1.1,0-2.1,0.3-2.8,0.8c-0.7,0.6-1.1,1.3-1.1,2.2c0,0.7,0.2,1.3,0.6,1.7c0.4,0.4,1.1,0.7,1.9,0.8l3.7,0.8
			c2.8,0.6,4.3,2.1,4.3,4.4c0,1.5-0.6,2.7-1.7,3.7c-1.1,0.9-2.7,1.4-4.6,1.4c-1.8,0-3.4-0.4-4.6-1.3c-1.3-0.9-2-2.1-2.2-3.7l2.1-0.4
			c0.2,1.2,0.7,2.1,1.6,2.7c0.9,0.6,2,1,3.3,1c1.3,0,2.3-0.3,3-0.9c0.7-0.6,1.1-1.3,1.1-2.3c0-0.8-0.2-1.4-0.6-1.7
			c-0.4-0.4-1.1-0.7-2.1-0.9l-3.8-0.8c-2.7-0.6-4.1-2-4.1-4.3c0-1.4,0.5-2.6,1.7-3.5c1.1-0.9,2.5-1.3,4.3-1.3
			C52,156.8,53.4,157.2,54.5,158.1z"/>
		<path class="st4" d="M68.1,158.9V174h-2v-15.1h-6.3v-1.8h14.5v1.8H68.1z"/>
		<path class="st4" d="M90.1,174l-6.5-7.2h-3.1v7.2h-2v-16.9h7.8c1.6,0,3,0.4,4,1.3c1,0.9,1.5,2,1.5,3.5s-0.5,2.6-1.5,3.5
			c-1,0.9-2.3,1.3-4,1.3h-0.3l6.5,7.2H90.1z M86.4,165c1.1,0,1.9-0.3,2.6-0.8c0.6-0.6,1-1.3,1-2.2c0-0.9-0.3-1.6-1-2.2
			c-0.6-0.6-1.5-0.8-2.6-0.8h-5.8v6H86.4z"/>
		<path class="st4" d="M96.8,174v-16.9h2V174H96.8z"/>
		<path class="st4" d="M114.5,165.4c1,0.1,1.8,0.5,2.4,1.2c0.6,0.7,1,1.6,1,2.8c0,1.4-0.5,2.5-1.4,3.3c-0.9,0.8-2.2,1.3-3.9,1.3
			h-8.1v-16.9h7.8c1.6,0,2.8,0.4,3.7,1.2c0.9,0.8,1.3,1.9,1.3,3.2c0,1-0.3,1.9-0.8,2.6C115.9,164.9,115.3,165.3,114.5,165.4
			L114.5,165.4z M106.6,164.7h5.7c0.9,0,1.7-0.3,2.3-0.8c0.6-0.6,0.9-1.3,0.9-2.2c0-0.9-0.3-1.5-0.9-2.1c-0.6-0.5-1.4-0.8-2.4-0.8
			h-5.6V164.7z M112.5,172.3c1,0,1.9-0.3,2.5-0.8c0.6-0.6,0.9-1.3,0.9-2.2c0-0.9-0.3-1.6-0.9-2.1c-0.6-0.5-1.4-0.8-2.4-0.8h-5.9v6
			H112.5z"/>
		<path class="st4" d="M136.7,166.6c0,2.3-0.6,4.2-1.9,5.6c-1.3,1.4-3,2.1-5.1,2.1c-2.1,0-3.9-0.7-5.2-2.1c-1.3-1.4-2-3.3-2-5.6
			v-9.5h2v9.5c0,1.7,0.5,3.1,1.4,4.2c0.9,1.1,2.2,1.6,3.7,1.6c1.5,0,2.7-0.5,3.7-1.6c0.9-1.1,1.4-2.5,1.4-4.2v-9.5h2V166.6z"/>
		<path class="st4" d="M142.3,174v-16.9h2V174H142.3z"/>
		<path class="st4" d="M155.7,157.1c2.9,0,5.2,0.8,6.8,2.4s2.5,3.6,2.5,6.1c0,2.5-0.8,4.5-2.5,6.1s-4,2.4-6.8,2.4h-5.6v-16.9H155.7z
			 M155.7,172.2c2.3,0,4.1-0.6,5.4-1.9c1.3-1.2,2-2.8,2-4.8c0-2-0.7-3.5-2-4.8c-1.3-1.2-3.1-1.9-5.4-1.9h-3.6v13.3H155.7z"/>
		<path class="st4" d="M184.1,159.4c1.7,1.7,2.5,3.8,2.5,6.2c0,2.5-0.8,4.5-2.5,6.2c-1.7,1.7-3.8,2.5-6.2,2.5
			c-2.5,0-4.5-0.8-6.2-2.5c-1.7-1.7-2.5-3.8-2.5-6.2c0-2.5,0.8-4.5,2.5-6.2c1.7-1.7,3.8-2.5,6.2-2.5
			C180.4,156.8,182.4,157.7,184.1,159.4z M182.7,170.5c1.3-1.3,1.9-3,1.9-4.9c0-1.9-0.6-3.6-1.9-4.9c-1.3-1.3-2.9-2-4.8-2
			c-1.9,0-3.5,0.7-4.8,2s-1.9,3-1.9,4.9c0,1.9,0.6,3.6,1.9,4.9s2.9,2,4.8,2C179.8,172.5,181.4,171.8,182.7,170.5z"/>
		<path class="st4" d="M203.2,174l-6.5-7.2h-3.1v7.2h-2v-16.9h7.8c1.6,0,3,0.4,4,1.3c1,0.9,1.5,2,1.5,3.5s-0.5,2.6-1.5,3.5
			c-1,0.9-2.3,1.3-4,1.3h-0.3l6.5,7.2H203.2z M199.4,165c1.1,0,1.9-0.3,2.6-0.8c0.6-0.6,1-1.3,1-2.2c0-0.9-0.3-1.6-1-2.2
			c-0.6-0.6-1.5-0.8-2.6-0.8h-5.8v6H199.4z"/>
		<path class="st4" d="M223.1,174l-1.9-4.3h-8.9l-1.9,4.3h-2.1l7.6-16.9h1.8l7.6,16.9H223.1z M216.8,159.6l-3.7,8.3h7.3L216.8,159.6
			z"/>
		<path class="st4" d="M242.4,157.1c2.9,0,5.2,0.8,6.8,2.4s2.5,3.6,2.5,6.1c0,2.5-0.8,4.5-2.5,6.1s-4,2.4-6.8,2.4h-5.6v-16.9H242.4z
			 M242.4,172.2c2.3,0,4.1-0.6,5.4-1.9c1.3-1.2,2-2.8,2-4.8c0-2-0.7-3.5-2-4.8c-1.3-1.2-3.1-1.9-5.4-1.9h-3.6v13.3H242.4z"/>
		<path class="st4" d="M269.1,174h-12.3v-16.9h12.3v1.8h-10.3v5.7h9.6v1.8h-9.6v5.8h10.3V174z"/>
		<path class="st4" d="M288.6,158.9V174h-2v-15.1h-6.3v-1.8h14.5v1.8H288.6z"/>
		<path class="st4" d="M311.4,174h-12.3v-16.9h12.3v1.8h-10.3v5.7h9.6v1.8h-9.6v5.8h10.3V174z"/>
		<path class="st4" d="M328,171.4c1.1-0.7,1.8-1.8,2.3-3.2l1.9,0.5c-0.5,1.8-1.5,3.2-2.9,4.2c-1.4,1-3.1,1.5-5.1,1.5
			c-2.5,0-4.5-0.8-6.2-2.5c-1.7-1.7-2.5-3.8-2.5-6.2c0-2.5,0.8-4.5,2.5-6.2c1.7-1.7,3.8-2.5,6.2-2.5c1.9,0,3.6,0.5,5.1,1.5
			c1.5,1,2.4,2.4,3,4.1l-1.9,0.6c-0.4-1.3-1.2-2.4-2.3-3.2c-1.1-0.8-2.4-1.1-3.9-1.1c-1.9,0-3.5,0.7-4.8,2c-1.3,1.3-2,3-2,4.9
			c0,1.9,0.7,3.6,2,4.9c1.3,1.3,2.9,2,4.8,2C325.7,172.5,326.9,172.1,328,171.4z"/>
		<path class="st4" d="M352,174h-1.7l-11-13.4V174h-2v-16.9h1.7l11,13.6v-13.6h2V174z"/>
		<path class="st4" d="M371.8,159.4c1.7,1.7,2.5,3.8,2.5,6.2c0,2.5-0.8,4.5-2.5,6.2c-1.7,1.7-3.8,2.5-6.2,2.5
			c-2.5,0-4.5-0.8-6.2-2.5c-1.7-1.7-2.5-3.8-2.5-6.2c0-2.5,0.8-4.5,2.5-6.2c1.7-1.7,3.8-2.5,6.2-2.5
			C368.1,156.8,370.1,157.7,371.8,159.4z M370.4,170.5c1.3-1.3,1.9-3,1.9-4.9c0-1.9-0.6-3.6-1.9-4.9c-1.3-1.3-2.9-2-4.8-2
			c-1.9,0-3.5,0.7-4.8,2s-1.9,3-1.9,4.9c0,1.9,0.6,3.6,1.9,4.9s2.9,2,4.8,2C367.5,172.5,369.1,171.8,370.4,170.5z"/>
		<path class="st4" d="M391,174h-11.7v-16.9h2v15.1h9.7V174z"/>
		<path class="st4" d="M409,159.4c1.7,1.7,2.5,3.8,2.5,6.2c0,2.5-0.8,4.5-2.5,6.2c-1.7,1.7-3.8,2.5-6.2,2.5c-2.5,0-4.5-0.8-6.2-2.5
			c-1.7-1.7-2.5-3.8-2.5-6.2c0-2.5,0.8-4.5,2.5-6.2c1.7-1.7,3.8-2.5,6.2-2.5C405.2,156.8,407.3,157.7,409,159.4z M407.5,170.5
			c1.3-1.3,1.9-3,1.9-4.9c0-1.9-0.6-3.6-1.9-4.9c-1.3-1.3-2.9-2-4.8-2c-1.9,0-3.5,0.7-4.8,2s-1.9,3-1.9,4.9c0,1.9,0.6,3.6,1.9,4.9
			s2.9,2,4.8,2C404.7,172.5,406.2,171.8,407.5,170.5z"/>
		<path class="st4" d="M432.9,164.8c0,0.2,0,0.5,0,0.9c0,2.5-0.8,4.6-2.4,6.2c-1.6,1.7-3.6,2.5-6.1,2.5c-2.5,0-4.6-0.8-6.3-2.5
			c-1.7-1.7-2.5-3.8-2.5-6.2c0-2.5,0.8-4.5,2.5-6.2c1.7-1.7,3.8-2.5,6.2-2.5c1.9,0,3.5,0.4,4.9,1.3c1.4,0.9,2.4,2.1,3,3.6l-1.8,0.6
			c-0.6-1.2-1.4-2.1-2.5-2.7c-1.1-0.6-2.3-0.9-3.7-0.9c-1.9,0-3.5,0.7-4.8,2s-1.9,3-1.9,4.9c0,1.9,0.7,3.6,2,4.9
			c1.3,1.3,2.9,2,4.9,2c1.8,0,3.2-0.6,4.4-1.7s1.9-2.5,2.1-4.3h-7.5v-1.8H432.9z"/>
		<path class="st4" d="M437.9,174v-16.9h2V174H437.9z"/>
		<path class="st4" d="M458.5,174l-1.9-4.3h-8.9l-1.9,4.3h-2.1l7.6-16.9h1.8l7.6,16.9H458.5z M452.2,159.6l-3.7,8.3h7.3L452.2,159.6
			z"/>
	</g>
</g>
</svg>
