<?xml version="1.0" encoding="UTF-8"?>
<!DOCTYPE svg PUBLIC "-//W3C//DTD SVG 1.1//EN" "http://www.w3.org/Graphics/SVG/1.1/DTD/svg11.dtd">
<!-- Creator: CorelDRAW 2018 (64 Bit Versão de avaliação) -->
<svg xmlns="http://www.w3.org/2000/svg" xml:space="preserve" width="2635px" height="551px" version="1.1" style="shape-rendering:geometricPrecision; text-rendering:geometricPrecision; image-rendering:optimizeQuality; fill-rule:evenodd; clip-rule:evenodd"
viewBox="0 0 2635 550.69"
 xmlns:xlink="http://www.w3.org/1999/xlink">
 <defs>
  <style type="text/css">
   <![CDATA[
    .fil1 {fill:#001C5C}
    .fil0 {fill:#CA0A11}
    .fil2 {fill:white}
   ]]>
  </style>
 </defs>
 <g id="Camada_x0020_1">
  <metadata id="CorelCorpID_0Corel-Layer"/>
  <g id="_1815711422048">
   <path class="fil0" d="M670.88 429.87c68.25,3.45 158.39,3.6 225.67,0.64 61,-2.69 116.76,-64.55 76.11,-118.84 15.43,-19.38 36.22,-29.18 38.74,-66.96 2.45,-36.74 -20.95,-49.51 -56.49,-50.55 -52.26,-1.53 -169.94,-5.18 -216.89,1.62l-67.14 234.09z"/>
   <path class="fil0" d="M2263.94 430.39l53.35 0.14c15.93,-24.8 29.79,-104.68 42.69,-138.4l56.95 132.55c23.59,-12.79 45.29,-43.93 65.42,-64.35 12.05,-12.21 21.44,-21.06 33.42,-33.27 13.25,-13.51 18.65,-24.75 35.12,-33.35l-37.13 136.7 53.54 0.05c12.74,-23.8 60.5,-200.19 67.7,-236.23 -40.74,0 -51.68,-6.1 -69.58,11.69 -13.78,13.7 -26.24,25.79 -39.1,40.01 -20.33,22.47 -57.2,64.33 -79.86,80.45l-56.78 -132.15 -60.42 0 -65.32 236.16z"/>
   <path class="fil0" d="M1972.98 430.69l246.12 0 17.58 -54.67 -193.89 -1.74 8.65 -33.35 182.25 -0.92 16.26 -55.11 -181.39 -1.34 8.32 -32.47 196.38 -0.68 14.62 -55.25 -245.61 -0.97c-11.53,3.88 -69.29,224.43 -69.29,236.5z"/>
   <path class="fil1" d="M342.08 471.37c-61.05,17.31 -200.24,65 -245.5,-1.34 -71.83,-105.3 153.65,-295.66 242.02,-357.52 109.53,-76.65 109.86,-62.16 204.01,-112.51 -80.1,4.46 -208.73,76.81 -262.88,111.99 -82.13,53.36 -143.86,108.33 -202.06,177.09 -40.25,47.55 -136.82,203.25 -26.66,251.6 81.48,35.77 238.2,-33.06 291.07,-69.31z"/>
   <path class="fil0" d="M1001.67 430.4c61.43,0.27 53.99,4.28 61.49,-18.52 14.4,-43.81 27.99,-115.6 45.97,-161.42 30.57,0 155.5,-4.72 174.63,3.13 5.14,11.74 1.95,24.97 -6.47,35.06 -12.75,15.26 -120.66,8.71 -153.3,8.71l77.35 131.75 74.99 1.66c-9.71,-26.04 -30.34,-51.14 -43.48,-77.17 117.18,-0.15 125.42,-121.13 95.14,-148.33 -23.05,-20.7 -215.6,-11.04 -261.04,-11.04l-65.28 236.17z"/>
   <path class="fil0" d="M1339.63 430.67l52.6 -0.21c25.24,-45.21 36.43,-163.66 59.36,-177.13 14.16,-6.68 139.29,-4.51 163.58,-1.84 5.65,18.9 -2.35,29.03 -6.52,47.68l-145.06 0.36 -14.57 55.93 141.14 0.21 -18.22 73.83 56.48 1.35c10.59,-54.09 33.82,-112.38 45.42,-166.35 19.2,-89.32 -71.68,-70.27 -139.94,-70.27 -54.25,-0.01 -119.63,-9.98 -147.29,66.28 -14.74,40.64 -38.44,125.81 -46.98,170.16z"/>
   <path class="fil0" d="M216.75 429.89l57.42 0.87c2.72,-15.43 6.96,-29.8 11.53,-46.05 2.41,-8.55 3.76,-14.27 6.25,-22.79 4.52,-15.39 1.25,-14.72 12.71,-21.86l175.01 -0.07 16.86 -55.85 -181.45 -0.34c4,-23.2 1.51,-32.11 22.55,-33.8l175.38 0.46c13.72,-9.6 16.93,-38.6 20.57,-55.98l-249.76 -0.16 -67.07 235.57z"/>
   <path class="fil0" d="M1921.43 430.67c14.49,-7.92 18.9,-41.33 22.39,-56.24 -30.89,0 -177.25,5.16 -192.21,-4.16 -11.78,-10.21 4.36,-49.06 9.66,-68.35 19.84,-72.16 14.92,-51.46 218.75,-51.46l14.67 -56.07c-170.95,-0.51 -250.08,-31.53 -286.99,99.66 -12.92,45.92 -43.76,117.96 18.9,133.63 32.26,8.06 153.6,2.99 194.83,2.99z"/>
   <path class="fil1" d="M650.59 249.51c-12.55,24.87 -64.2,76.63 -83.53,89.75 -14.43,20.93 -44.65,37.81 -62.56,55.67l57.1 -32.84c7.3,-8.17 63.81,-54.26 72.45,-58.93 9.45,-11.3 18.64,-17.24 29.44,-28.25 91.78,-93.5 143.76,-222.01 -61.37,-164.86 42.59,3.41 86.81,-2.78 90.04,43.74 2.65,38.14 -22.72,76.64 -41.57,95.72z"/>
   <path class="fil0" d="M567.06 339.26c19.33,-13.12 70.98,-64.88 83.53,-89.75l13.85 -55.18 -56.38 -0.1 -41 145.03z"/>
   <path class="fil2" d="M742.97 373.65l178.15 0.7c32.45,-44.48 -11.75,-34.33 -49.76,-34.29 -37.5,0.04 -75,0 -112.51,0 -11.3,2.96 -8.21,4.09 -15.88,33.59z"/>
   <path class="fil2" d="M768.07 284.65c33.5,0.19 66.31,0.19 99.12,0.19 24.71,0 78.07,10.74 84.88,-17.79 5.95,-24.88 -34.1,-16.6 -76.54,-16.59 -30.04,0 -69.03,-2.14 -97.94,1.03l-9.52 33.16z"/>
   <path class="fil0" d="M561.6 362.09l-18.77 68.33 53.52 0.01c13.23,-24.54 30.34,-96.5 37.7,-127.27 -8.64,4.67 -65.15,50.76 -72.45,58.93z"/>
  </g>
 </g>
</svg>
